<?xml version="1.0" standalone="no"?>
<!DOCTYPE svg PUBLIC "-//W3C//DTD SVG 20010904//EN"
 "http://www.w3.org/TR/2001/REC-SVG-20010904/DTD/svg10.dtd">
<svg version="1.0" xmlns="http://www.w3.org/2000/svg"
 width="500.000000pt" height="500.000000pt" viewBox="0 0 500.000000 500.000000"
 preserveAspectRatio="xMidYMid meet">

<g transform="translate(0.000000,500.000000) scale(0.100000,-0.100000)"
fill="#000000" stroke="none">
<path d="M0 2500 l0 -2500 2500 0 2500 0 0 2500 0 2500 -2500 0 -2500 0 0
-2500z m2711 1735 c211 -28 356 -70 534 -155 368 -176 650 -455 824 -815 87
-178 148 -380 167 -551 l6 -61 -38 -7 c-109 -21 -151 -171 -70 -252 19 -19 48
-35 70 -39 l38 -8 -7 -61 c-18 -167 -79 -371 -160 -541 -175 -365 -458 -646
-830 -825 -139 -66 -207 -90 -360 -125 -307 -70 -651 -51 -960 52 -103 34
-318 145 -420 216 -397 277 -663 704 -734 1174 -17 109 -17 107 33 121 143 38
136 261 -9 288 -40 7 -40 9 -24 117 26 176 72 321 154 492 224 465 636 807
1128 935 218 57 450 73 658 45z"/>
<path d="M2320 4219 c-265 -28 -549 -129 -762 -268 -171 -111 -350 -284 -474
-458 -147 -205 -270 -521 -298 -768 l-6 -50 52 -25 c132 -64 127 -252 -7 -306
l-46 -19 6 -50 c39 -301 180 -631 373 -865 364 -442 925 -681 1482 -630 310
28 564 116 820 284 408 269 690 723 754 1216 l6 45 -52 25 c-132 62 -132 235
-1 300 l52 25 -5 45 c-84 684 -572 1249 -1249 1445 -176 51 -459 75 -645 54z
m401 -74 c202 -29 346 -74 524 -162 441 -221 769 -640 875 -1120 21 -95 25
-143 11 -128 -4 6 -16 50 -26 100 -93 482 -440 927 -888 1140 -175 83 -313
124 -501 150 -619 85 -1232 -193 -1581 -715 -114 -171 -203 -383 -243 -581
-18 -90 -32 -123 -32 -76 0 78 73 322 139 462 50 107 171 290 252 380 269 302
619 491 1014 549 123 19 330 19 456 1z m-221 -170 c0 -22 -4 -25 -35 -25 -34
0 -35 -1 -35 -40 0 -38 2 -40 30 -40 25 0 30 -4 30 -25 0 -20 -5 -25 -25 -25
-23 0 -25 -3 -25 -51 l0 -51 37 4 c30 2 38 -1 41 -16 6 -27 -15 -36 -84 -36
l-61 0 -7 103 c-4 56 -9 128 -13 159 l-5 57 33 4 c19 2 53 5 77 5 39 2 42 0
42 -23z m230 -2 c3 -2 6 -77 8 -165 l3 -159 -28 3 c-24 3 -28 8 -31 41 -3 31
-7 37 -27 37 -17 0 -26 -8 -34 -30 -10 -30 -30 -37 -64 -24 -13 4 -12 12 3 52
9 26 34 96 55 155 l38 109 36 -7 c20 -4 38 -9 41 -12z m-499 -42 c21 -17 24
-28 24 -83 0 -41 6 -73 16 -88 8 -14 25 -41 37 -61 l22 -36 -35 -10 -34 -11
-41 65 c-23 36 -44 62 -47 59 -3 -3 3 -35 12 -71 10 -36 16 -67 13 -70 -2 -3
-18 -7 -34 -11 l-29 -6 -44 144 c-24 79 -46 148 -48 154 -4 12 85 41 133 43
18 0 42 -7 55 -18z m711 -12 c29 -12 63 -25 75 -30 20 -7 21 -11 12 -33 -10
-20 -16 -23 -34 -16 -21 8 -25 2 -70 -116 -26 -68 -52 -124 -57 -124 -8 0 -47
18 -57 26 -1 1 19 58 45 125 26 68 44 124 38 126 -30 11 -36 21 -25 42 14 26
9 26 73 0z m-977 -121 c20 -23 23 -33 14 -44 -22 -27 -49 -27 -70 0 -21 27
-39 27 -39 -1 0 -19 91 -171 106 -177 6 -2 16 -1 23 4 10 6 9 14 -4 40 -9 17
-15 33 -13 34 59 38 56 38 73 7 24 -48 19 -86 -16 -115 -72 -60 -114 -42 -187
80 -70 118 -68 159 10 194 48 21 70 17 103 -22z m1226 -4 c63 -38 67 -45 45
-63 -11 -10 -21 -9 -45 4 -31 15 -31 15 -50 -16 -19 -32 -19 -32 0 -48 13 -10
18 -22 14 -34 -8 -20 -18 -21 -45 -7 -16 9 -23 4 -45 -27 -27 -41 -26 -44 24
-72 12 -7 12 -11 -1 -29 -14 -21 -15 -20 -75 19 l-61 41 86 134 c48 73 89 134
91 134 2 0 30 -16 62 -36z m-506 -273 c179 -35 328 -106 496 -238 55 -42 160
-168 211 -254 58 -96 112 -242 127 -344 7 -44 14 -95 17 -112 6 -38 28 -53 81
-54 37 -1 37 -2 -11 -10 -27 -4 -52 -11 -56 -16 -4 -4 -15 -62 -25 -128 -58
-383 -299 -690 -655 -832 -100 -40 -265 -73 -369 -73 -186 0 -395 62 -546 163
-137 92 -166 116 -236 197 -151 174 -230 365 -255 613 -6 66 -7 68 -38 75
l-31 6 30 6 c30 5 30 6 51 125 24 144 66 265 128 368 228 387 659 589 1081
508z m-1137 -100 c-201 -210 -323 -460 -362 -741 l-7 -46 42 -18 c51 -23 84
-85 73 -141 -6 -36 -55 -95 -77 -95 -34 -1 -38 -15 -27 -86 6 -38 14 -80 17
-94 4 -17 2 -22 -5 -15 -13 13 -32 105 -32 155 0 36 4 41 33 54 80 33 101 117
47 180 -17 18 -41 37 -55 40 -31 8 -33 40 -9 152 35 172 103 335 200 481 55
83 217 263 236 263 6 0 -28 -40 -74 -89z m130 32 c-156 -144 -224 -233 -309
-408 -40 -82 -67 -154 -85 -230 -34 -140 -33 -139 -40 -132 -8 7 20 141 46
219 35 105 115 259 181 349 66 91 233 259 256 259 8 0 -14 -26 -49 -57z m1664
3 c192 -165 335 -405 399 -671 21 -88 24 -114 10 -100 -4 6 -14 39 -20 73 -30
155 -119 354 -221 491 -31 42 -100 118 -154 169 -106 101 -115 124 -14 38z
m124 -28 c139 -145 234 -300 298 -485 35 -102 66 -240 66 -293 0 -24 -6 -30
-35 -40 -42 -14 -75 -64 -75 -112 0 -43 31 -85 77 -104 28 -12 33 -19 33 -47
0 -44 -21 -149 -31 -162 -12 -12 -11 10 0 55 5 19 12 56 16 82 6 46 6 46 -29
58 -107 35 -107 205 -1 240 34 11 35 13 29 53 -41 286 -164 540 -363 749 -46
48 -79 88 -74 88 6 0 46 -37 89 -82z m-2264 -885 c36 -32 11 -103 -36 -103
-44 0 -74 46 -55 83 22 41 59 49 91 20z m2664 9 c24 -16 35 -51 23 -74 -22
-42 -59 -50 -91 -21 -49 44 13 132 68 95z m-2603 -284 c4 -24 10 -53 13 -65 3
-13 2 -23 -3 -23 -8 0 -33 97 -33 129 0 29 18 -2 23 -41z m2486 -22 c-7 -36
-17 -66 -22 -66 -5 0 -6 12 -3 26 4 15 9 40 12 58 8 44 14 60 20 54 3 -3 -1
-35 -7 -72z m-2856 -77 c37 -190 127 -407 241 -579 373 -558 1062 -838 1711
-694 342 76 668 269 893 527 179 206 318 486 367 742 10 50 22 94 26 99 26 29
-9 -147 -57 -292 -178 -530 -619 -942 -1155 -1078 -418 -105 -843 -54 -1214
148 -308 167 -569 444 -710 753 -68 149 -135 374 -135 453 0 48 17 9 33 -79z
m567 -289 c9 -16 7 -27 -10 -50 -23 -32 -17 -36 24 -20 21 8 28 6 41 -13 15
-22 15 -22 -67 -48 -46 -14 -103 -38 -127 -54 -42 -28 -44 -29 -57 -10 -20 27
-19 30 35 68 26 19 68 60 92 91 24 31 47 56 51 56 4 0 12 -9 18 -20z m2139
-44 c-8 -18 -17 -22 -36 -18 -19 4 -24 1 -21 -9 4 -11 24 -13 86 -11 71 3 83
1 101 -17 52 -52 -6 -147 -73 -121 -27 10 -30 17 -20 44 4 11 14 13 35 9 18
-3 29 -1 29 5 0 20 -32 29 -69 21 -60 -14 -93 -10 -118 13 -53 50 0 140 69
116 23 -8 26 -12 17 -32z m-141 -108 c9 -9 7 -17 -10 -35 -21 -22 -21 -23 -3
-43 22 -24 41 -26 49 -3 6 15 8 15 24 0 13 -14 14 -21 5 -36 -10 -16 -7 -23
16 -45 28 -26 28 -26 46 -6 22 24 34 25 42 4 4 -10 -8 -29 -32 -54 l-38 -39
-36 31 c-20 17 -65 58 -100 90 l-64 58 37 45 c40 48 46 51 64 33z m-1844 -49
c42 -50 35 -75 -41 -147 -38 -34 -79 -65 -91 -69 -28 -7 -71 22 -90 60 -18 37
3 74 79 137 73 61 105 65 143 19z m1782 -180 l88 -101 -25 -18 c-13 -11 -27
-16 -30 -12 -4 4 -43 50 -88 102 -75 88 -79 95 -64 112 9 10 20 18 24 18 4 0
47 -45 95 -101z m-1663 67 c9 -7 17 -16 17 -20 0 -3 -27 -42 -60 -87 -33 -44
-60 -87 -60 -95 0 -33 34 -9 86 64 32 42 60 81 64 85 9 10 50 -13 50 -27 0 -4
-28 -46 -61 -91 -63 -84 -95 -109 -126 -98 -31 11 -73 56 -73 79 0 20 126 204
139 204 3 0 14 -7 24 -14z m1507 -88 c22 -24 35 -61 26 -76 -3 -5 15 -28 39
-52 25 -24 45 -48 45 -52 0 -4 -10 -12 -21 -19 -19 -10 -27 -6 -65 32 -24 23
-46 40 -50 36 -3 -3 7 -28 24 -56 l31 -49 -25 -17 c-14 -9 -27 -15 -28 -13 -2
2 -35 54 -74 116 l-71 112 52 30 c62 36 89 37 117 8z m-1289 -55 c52 -28 66
-53 55 -99 -4 -14 -19 -33 -35 -42 -23 -13 -30 -26 -39 -75 -6 -33 -14 -62
-16 -65 -3 -2 -16 3 -30 11 -21 14 -23 21 -16 49 18 71 20 88 12 88 -5 0 -19
-22 -32 -50 -25 -52 -35 -58 -64 -37 -17 12 -14 21 40 130 32 64 63 117 67
117 5 0 31 -12 58 -27z m1101 -93 c58 -120 60 -168 8 -195 -67 -35 -101 -12
-143 98 -33 83 -34 101 -2 133 20 20 33 25 68 22 40 -3 43 -5 69 -58z m-801
-10 c17 0 19 -8 19 -77 l1 -78 27 70 c26 67 29 70 57 67 17 -2 31 -5 32 -6 1
-1 -6 -58 -17 -126 -11 -69 -20 -128 -20 -132 0 -5 -10 -8 -21 -8 -21 0 -21 3
-16 73 l6 72 -23 -65 c-12 -36 -28 -65 -34 -64 -7 1 -16 2 -22 3 -6 0 -10 35
-11 79 l-1 77 -15 -72 c-14 -65 -18 -73 -38 -73 l-23 0 14 73 c8 39 19 100 25
135 9 49 15 62 26 58 8 -3 23 -6 34 -6z m590 -120 c25 -126 25 -130 7 -136
-11 -3 -21 -4 -23 -2 -2 1 -10 35 -18 73 l-15 70 -1 -77 c-1 -70 -3 -78 -20
-78 -15 0 -26 17 -47 70 -15 39 -28 69 -30 68 -1 -2 4 -35 10 -75 12 -67 12
-72 -6 -76 -10 -3 -20 -2 -22 2 -2 3 -14 62 -26 130 -18 103 -20 125 -9 132
32 21 53 5 79 -61 l25 -65 3 65 c3 84 6 90 40 90 28 0 28 0 53 -130z m-271 75
c0 -21 -5 -25 -30 -25 -27 0 -30 -3 -30 -30 0 -25 4 -30 25 -30 18 0 25 -5 25
-20 0 -13 -7 -20 -20 -20 -25 0 -34 -21 -26 -55 5 -20 13 -25 36 -25 23 0 30
-5 30 -19 0 -16 -9 -21 -44 -26 -82 -13 -81 -16 -84 125 -1 68 0 130 2 137 4
9 24 13 61 13 52 0 55 -1 55 -25z"/>
<path d="M2662 3836 c-9 -34 -10 -52 -3 -59 17 -17 22 -2 19 54 l-3 53 -13
-48z"/>
<path d="M2142 3892 c-16 -11 -5 -72 15 -79 8 -3 21 1 30 10 13 13 13 19 2 43
-16 31 -28 38 -47 26z"/>
<path d="M2366 3503 c-74 -14 -84 -18 -64 -25 17 -6 156 26 143 33 -5 3 -41 0
-79 -8z"/>
<path d="M2493 3513 c15 -2 39 -2 55 0 15 2 2 4 -28 4 -30 0 -43 -2 -27 -4z"/>
<path d="M2408 3482 c-38 -8 -68 -19 -68 -23 0 -19 51 -19 111 -2 55 17 61 21
44 29 -14 7 -40 6 -87 -4z"/>
<path d="M2526 3489 c13 -7 41 -7 80 -1 l59 10 -80 0 c-60 1 -75 -2 -59 -9z"/>
<path d="M2178 3451 c-57 -22 -65 -28 -50 -37 13 -8 33 -3 90 21 39 17 69 35
65 38 -11 11 -35 6 -105 -22z"/>
<path d="M2601 3473 c-41 -4 -43 -5 -23 -19 15 -10 35 -13 76 -8 31 4 56 10
56 14 0 10 -27 20 -48 18 -9 -1 -37 -3 -61 -5z"/>
<path d="M2758 3463 c12 -2 30 -2 40 0 9 3 -1 5 -23 4 -22 0 -30 -2 -17 -4z"/>
<path d="M2232 3428 l-72 -31 30 -18 c31 -19 31 -19 93 12 77 39 74 36 51 54
-24 18 -17 19 -102 -17z"/>
<path d="M2445 3443 l-49 -15 24 -19 c30 -23 36 -23 91 -4 80 28 76 25 55 41
-25 18 -57 17 -121 -3z"/>
<path d="M2691 3438 c-67 -12 -69 -13 -34 -32 28 -14 40 -15 78 -5 25 6 45 15
45 19 0 16 -47 26 -89 18z"/>
<path d="M2789 3437 c15 -19 91 -24 91 -7 0 6 -15 10 -34 10 -19 0 -43 3 -53
7 -16 6 -16 5 -4 -10z"/>
<path d="M1996 3389 c-37 -23 -65 -43 -63 -45 2 -3 33 12 68 33 77 44 73 42
68 48 -3 2 -35 -14 -73 -36z"/>
<path d="M2030 3379 c-63 -38 -81 -61 -50 -66 8 -2 46 17 84 41 61 39 67 45
50 54 -15 8 -32 2 -84 -29z"/>
<path d="M2303 3387 c-35 -17 -63 -34 -63 -37 0 -7 60 -40 73 -40 7 0 39 15
71 34 l60 34 -35 21 c-19 11 -36 21 -39 20 -3 0 -33 -14 -67 -32z"/>
<path d="M2538 3402 c-27 -9 -47 -21 -46 -27 0 -5 15 -20 32 -31 l31 -22 50
25 c65 33 64 31 35 53 -30 23 -41 23 -102 2z"/>
<path d="M2756 3394 c-22 -8 -41 -16 -43 -18 -2 -2 12 -13 31 -25 l35 -22 42
21 42 22 -29 19 c-34 22 -28 22 -78 3z"/>
<path d="M2854 3395 c21 -16 44 -19 70 -9 29 11 6 24 -42 24 -44 -1 -46 -2
-28 -15z"/>
<path d="M2077 3347 c-37 -23 -67 -44 -67 -47 0 -3 13 -14 30 -23 l30 -18 59
40 c33 23 62 45 65 49 3 5 -7 16 -22 24 -27 16 -30 15 -95 -25z"/>
<path d="M2916 3371 c-17 -6 -16 -9 9 -25 23 -15 31 -16 51 -5 45 24 -7 51
-60 30z"/>
<path d="M3000 3376 c0 -2 7 -6 15 -10 8 -3 15 -1 15 4 0 6 -7 10 -15 10 -8 0
-15 -2 -15 -4z"/>
<path d="M2393 3334 c-35 -19 -63 -37 -63 -38 0 -6 80 -56 90 -56 9 0 120 69
120 75 0 3 -78 55 -82 55 -2 0 -31 -16 -65 -36z"/>
<path d="M2622 3341 l-53 -27 49 -31 49 -30 46 33 c26 19 47 36 47 38 0 6 -70
46 -78 46 -4 -1 -31 -13 -60 -29z"/>
<path d="M2832 3342 c-39 -19 -37 -28 9 -55 l35 -20 33 24 32 24 -28 22 c-33
27 -37 27 -81 5z"/>
<path d="M3040 3352 c0 -5 7 -13 16 -16 10 -4 14 -1 12 6 -5 15 -28 23 -28 10z"/>
<path d="M2993 3337 c-30 -13 -29 -19 8 -41 29 -17 31 -17 44 0 22 31 -14 59
-52 41z"/>
<path d="M2142 3296 l-62 -43 40 -27 c22 -14 42 -26 46 -26 3 0 35 21 70 47
l64 46 -35 24 c-19 13 -40 23 -47 22 -7 0 -41 -19 -76 -43z"/>
<path d="M1840 3280 c-30 -27 -52 -52 -48 -55 3 -3 30 15 59 41 77 67 75 64
59 64 -8 -1 -40 -23 -70 -50z"/>
<path d="M3080 3326 c0 -2 7 -9 15 -16 12 -10 15 -10 15 4 0 9 -7 16 -15 16
-8 0 -15 -2 -15 -4z"/>
<path d="M1873 3267 c-54 -45 -60 -54 -48 -66 18 -19 38 -9 104 51 48 44 50
48 32 57 -11 6 -21 11 -23 11 -2 0 -31 -24 -65 -53z"/>
<path d="M2496 3268 l-59 -41 26 -21 c15 -12 40 -29 55 -38 l29 -17 53 47 53
48 -26 17 c-77 49 -67 49 -131 5z"/>
<path d="M2725 3279 c-21 -17 -41 -31 -43 -33 -1 -2 20 -18 48 -36 l52 -33 40
40 40 41 -38 26 c-21 14 -43 26 -49 25 -5 0 -28 -14 -50 -30z"/>
<path d="M2920 3283 l-32 -29 42 -28 43 -28 23 28 c28 35 27 40 -13 65 l-32
20 -31 -28z"/>
<path d="M3056 3291 c-16 -18 -15 -20 10 -40 14 -11 30 -18 35 -15 16 9 9 49
-10 61 -15 10 -22 9 -35 -6z"/>
<path d="M3120 3301 c0 -5 5 -13 10 -16 6 -3 10 -2 10 4 0 5 -4 13 -10 16 -5
3 -10 2 -10 -4z"/>
<path d="M1928 3237 c-32 -29 -58 -55 -58 -58 0 -3 14 -16 31 -28 l31 -23 59
58 c32 32 59 61 59 64 0 5 -55 40 -62 40 -1 -1 -29 -24 -60 -53z"/>
<path d="M2245 3238 l-66 -51 50 -33 c28 -19 54 -34 58 -34 4 1 34 24 65 53
l58 52 -49 32 -49 32 -67 -51z"/>
<path d="M3120 3241 c0 -20 8 -35 23 -46 21 -15 22 -14 25 5 4 23 -22 70 -38
70 -6 0 -10 -13 -10 -29z"/>
<path d="M3009 3224 c-11 -19 -20 -36 -18 -37 2 -2 21 -15 42 -30 l37 -28 9
23 c22 60 22 62 -14 85 l-34 22 -22 -35z"/>
<path d="M2837 3212 c-21 -21 -37 -41 -37 -44 0 -3 23 -21 51 -39 l51 -33 19
25 c40 53 44 68 23 83 -65 48 -68 48 -107 8z"/>
<path d="M2002 3182 l-63 -57 44 -27 c24 -16 48 -28 53 -28 11 0 114 102 114
112 0 8 -71 58 -80 58 -3 -1 -33 -26 -68 -58z"/>
<path d="M2606 3186 l-49 -44 56 -37 c32 -21 55 -40 53 -42 -2 -3 -29 12 -61
33 l-56 37 -54 -53 c-30 -30 -55 -57 -55 -60 0 -3 28 -24 63 -48 l62 -43 28
33 c16 18 59 67 96 108 37 41 70 80 74 86 7 11 -79 74 -99 74 -5 -1 -31 -20
-58 -44z"/>
<path d="M3180 3207 c0 -27 34 -76 45 -66 8 8 -19 74 -34 83 -7 5 -11 -2 -11
-17z"/>
<path d="M1722 3161 c-29 -35 -52 -66 -51 -69 0 -9 59 -56 63 -51 1 2 26 33
55 68 l52 63 -22 16 c-19 13 -23 13 -33 0 -40 -52 -90 -108 -94 -103 -3 2 16
29 42 60 26 30 46 60 44 66 -2 7 -27 -16 -56 -50z"/>
<path d="M2357 3161 l-57 -50 48 -34 c26 -18 53 -37 60 -42 10 -5 32 10 68 46
30 29 54 56 54 60 0 8 -96 69 -109 69 -4 0 -33 -22 -64 -49z"/>
<path d="M3101 3168 c-6 -17 -11 -37 -11 -44 0 -11 58 -54 74 -54 3 0 6 20 6
43 0 29 -6 49 -17 59 -34 29 -41 28 -52 -4z"/>
<path d="M3230 3187 c0 -18 28 -73 44 -86 14 -12 14 -8 -3 28 -18 41 -41 73
-41 58z"/>
<path d="M2107 3116 l-56 -64 52 -36 51 -36 58 57 c32 32 58 62 58 68 0 8 -92
75 -103 75 -2 0 -29 -29 -60 -64z"/>
<path d="M2944 3131 c-14 -22 -24 -44 -21 -48 3 -5 26 -23 51 -41 l46 -34 24
54 23 53 -36 27 c-20 15 -42 28 -48 28 -7 0 -24 -18 -39 -39z"/>
<path d="M1793 3095 l-52 -64 33 -20 c18 -12 35 -21 38 -21 6 0 110 131 106
134 -26 20 -55 36 -63 36 -5 0 -33 -29 -62 -65z"/>
<path d="M2759 3132 c-14 -15 -35 -39 -47 -53 l-23 -26 38 -25 c21 -13 50 -32
64 -42 l26 -16 37 52 c20 29 36 56 36 59 0 3 -24 22 -54 42 l-54 36 -23 -27z"/>
<path d="M3280 3146 c0 -11 40 -86 45 -86 3 0 -4 19 -16 43 -23 45 -29 54 -29
43z"/>
<path d="M3187 3133 c-4 -3 -7 -23 -7 -43 0 -31 6 -42 35 -64 l35 -27 -1 33
c-1 18 -4 44 -8 57 -7 26 -43 55 -54 44z"/>
<path d="M1880 3049 c-27 -33 -50 -64 -50 -68 0 -5 18 -21 40 -36 32 -22 43
-25 54 -16 17 14 96 115 96 123 0 6 -76 58 -84 58 -3 0 -28 -27 -56 -61z"/>
<path d="M2227 3035 l-57 -62 60 -42 c33 -23 65 -41 70 -39 5 2 32 30 60 63
l51 60 -27 21 c-14 12 -43 30 -63 41 l-36 19 -58 -61z"/>
<path d="M3053 3051 l-21 -50 52 -36 51 -36 14 58 14 57 -34 28 c-18 15 -38
28 -44 28 -6 0 -20 -22 -32 -49z"/>
<path d="M3260 3041 c0 -44 4 -52 30 -71 33 -24 34 -21 20 47 -7 29 -19 54
-30 61 -19 11 -20 9 -20 -37z"/>
<path d="M1616 3008 c-44 -73 -44 -73 -31 -74 6 -1 27 29 48 67 48 86 33 92
-17 7z"/>
<path d="M2865 3015 c-21 -30 -36 -56 -34 -58 55 -41 109 -77 116 -77 12 0 65
109 58 121 -6 9 -90 69 -98 69 -3 0 -22 -25 -42 -55z"/>
<path d="M1641 2986 c-23 -40 -41 -76 -41 -79 0 -4 9 -11 19 -17 17 -9 24 -1
60 61 23 39 41 74 41 77 0 4 -9 13 -19 19 -18 11 -23 6 -60 -61z"/>
<path d="M1981 2975 c-28 -35 -51 -66 -51 -69 0 -12 112 -78 119 -70 4 5 29
37 55 71 l47 62 -53 36 c-29 19 -56 35 -59 35 -4 0 -30 -29 -58 -65z"/>
<path d="M2631 2986 c-23 -30 -43 -58 -44 -63 -1 -9 113 -92 128 -92 6 -1 29
28 52 63 l42 64 -63 41 c-34 23 -64 41 -67 41 -2 0 -24 -24 -48 -54z"/>
<path d="M3320 3037 c0 -34 26 -109 42 -124 21 -18 21 -18 14 11 -4 15 -10 41
-13 57 -4 24 -43 74 -43 56z"/>
<path d="M3160 2974 c-7 -30 -10 -57 -8 -58 1 -1 22 -16 44 -34 l41 -32 7 47
c10 77 8 87 -27 111 -18 12 -36 22 -39 22 -4 0 -12 -25 -18 -56z"/>
<path d="M1692 2947 c-38 -66 -117 -247 -110 -251 2 0 15 -12 30 -25 l28 -24
19 44 c11 23 17 47 15 51 -3 4 -1 8 3 8 5 0 14 13 20 30 10 28 9 32 -18 51
-17 12 -28 23 -25 26 3 3 18 -4 33 -15 l28 -20 44 75 c43 73 44 76 25 90 -48
36 -49 36 -92 -40z"/>
<path d="M2379 2957 c-23 -29 -48 -59 -55 -67 -11 -13 -3 -23 58 -64 38 -27
73 -44 77 -39 33 49 95 123 98 119 3 -3 -16 -32 -41 -65 -25 -33 -46 -63 -46
-68 1 -4 32 -29 70 -55 l70 -46 49 70 50 71 -22 17 c-12 9 -77 53 -143 98
l-122 81 -43 -52z"/>
<path d="M3373 2985 c4 -10 12 -37 18 -61 6 -24 18 -49 27 -56 13 -11 15 -10
10 2 -3 8 -13 39 -22 67 -10 29 -22 56 -28 60 -8 4 -9 0 -5 -12z"/>
<path d="M2995 2930 c-14 -27 -25 -53 -25 -58 0 -16 108 -93 115 -82 16 25 44
124 38 130 -37 29 -84 60 -92 60 -6 0 -22 -22 -36 -50z"/>
<path d="M3257 2907 c-5 -56 -4 -64 16 -80 55 -44 57 -43 57 26 0 53 -4 67
-22 84 -42 37 -45 36 -51 -30z"/>
<path d="M1770 2890 c-36 -62 -45 -101 -20 -85 5 3 14 -3 20 -14 6 -12 19 -25
29 -31 17 -8 24 -1 60 59 23 38 41 74 41 79 0 9 -70 62 -83 62 -3 0 -25 -32
-47 -70z"/>
<path d="M2111 2895 c-28 -35 -51 -69 -51 -74 0 -16 121 -94 129 -85 27 31
102 136 100 138 -2 1 -26 18 -54 37 -27 19 -55 38 -62 42 -7 4 -31 -18 -62
-58z"/>
<path d="M2770 2879 c-23 -33 -41 -61 -39 -63 2 -1 34 -23 70 -49 l65 -46 37
64 c20 35 37 68 37 72 0 10 -104 83 -118 83 -5 0 -28 -27 -52 -61z"/>
<path d="M1536 2836 c-14 -41 -26 -78 -26 -82 0 -20 21 17 39 66 10 30 22 63
26 73 4 9 3 17 -3 17 -5 0 -21 -33 -36 -74z"/>
<path d="M3340 2842 c0 -64 2 -70 30 -90 l30 -23 0 53 c0 71 -8 94 -36 113
l-24 15 0 -68z"/>
<path d="M3135 2888 c-23 -63 -35 -102 -35 -112 1 -11 98 -82 103 -75 2 2 10
34 19 71 l15 67 -43 30 c-47 35 -53 36 -59 19z"/>
<path d="M1579 2863 c-6 -16 -19 -52 -29 -80 -19 -52 -19 -53 1 -63 16 -9 21
-7 30 17 47 122 48 127 38 140 -17 20 -28 16 -40 -14z"/>
<path d="M1877 2825 c-21 -36 -36 -69 -33 -74 3 -5 -1 -11 -8 -14 -13 -5 -29
-35 -72 -134 -14 -32 -14 -32 32 -68 26 -19 50 -35 53 -35 4 0 23 34 44 75
l37 75 -50 36 c-28 20 -49 39 -46 41 3 3 27 -11 55 -31 l49 -36 47 76 c25 42
43 80 38 84 -18 16 -96 70 -102 70 -3 0 -23 -30 -44 -65z"/>
<path d="M2253 2801 c-23 -32 -45 -64 -47 -72 -4 -9 19 -31 63 -61 l69 -48 46
64 c26 36 48 71 51 78 4 12 -113 98 -132 98 -5 0 -27 -27 -50 -59z"/>
<path d="M2920 2788 c-19 -35 -36 -66 -38 -69 -2 -4 27 -28 63 -53 l66 -46 25
57 c14 32 30 65 35 74 7 13 -4 25 -50 58 -33 22 -61 41 -63 41 -2 0 -19 -28
-38 -62z"/>
<path d="M3414 2783 c5 -49 13 -74 27 -88 l21 -20 -7 55 c-10 89 -15 108 -32
114 -14 6 -15 -2 -9 -61z"/>
<path d="M3247 2813 c-3 -5 -11 -35 -18 -67 l-13 -59 30 -24 c60 -49 60 -49
73 30 l12 72 -33 27 c-35 29 -44 33 -51 21z"/>
<path d="M3465 2755 c8 -59 22 -111 29 -104 6 6 -20 148 -29 157 -4 4 -4 -20
0 -53z"/>
<path d="M1711 2781 c-19 -34 -9 -42 23 -18 16 12 16 14 3 26 -13 10 -17 9
-26 -8z"/>
<path d="M1995 2729 c-26 -40 -43 -75 -38 -79 22 -19 111 -80 117 -80 3 0 27
31 52 70 38 57 44 72 35 84 -13 16 -104 76 -114 76 -3 0 -27 -32 -52 -71z"/>
<path d="M2668 2731 l-47 -68 74 -52 73 -51 46 74 45 75 -64 45 c-35 26 -67
46 -72 46 -4 0 -29 -31 -55 -69z"/>
<path d="M2409 2698 c-24 -34 -47 -67 -52 -74 -5 -9 16 -29 67 -63 l75 -51 45
65 c26 35 48 70 51 77 3 8 -15 26 -43 44 -26 17 -59 38 -73 47 l-26 17 -44
-62z"/>
<path d="M3331 2683 l-11 -77 27 -23 c44 -35 53 -30 53 30 0 28 3 61 5 72 4
14 -4 28 -28 47 l-35 27 -11 -76z"/>
<path d="M3052 2681 l-30 -69 58 -41 c32 -23 61 -38 64 -33 2 4 16 38 30 75
l25 66 -48 36 c-27 19 -53 35 -58 35 -6 0 -24 -31 -41 -69z"/>
<path d="M1491 2659 c-7 -45 -10 -83 -8 -86 3 -2 10 29 17 69 7 40 14 76 16
80 3 4 1 9 -4 12 -5 3 -14 -31 -21 -75z"/>
<path d="M1673 2690 l-21 -50 43 -30 44 -30 24 54 c14 30 28 65 32 78 7 20 6
21 -9 9 -9 -7 -16 -20 -16 -27 0 -8 -4 -14 -10 -14 -5 0 -10 6 -10 13 0 16
-31 47 -46 47 -6 0 -20 -23 -31 -50z"/>
<path d="M1526 2703 c-5 -20 -26 -133 -26 -142 0 -3 7 3 15 13 8 11 15 36 16
55 1 32 2 33 8 11 6 -22 8 -23 14 -7 11 30 8 64 -7 76 -11 10 -15 8 -20 -6z"/>
<path d="M2140 2637 c-25 -39 -46 -74 -48 -77 -1 -4 29 -28 67 -53 l71 -47 50
75 50 74 -63 44 c-34 24 -66 46 -72 49 -5 3 -30 -26 -55 -65z"/>
<path d="M2847 2663 c-13 -21 -33 -55 -46 -75 l-22 -37 67 -45 c37 -25 71 -43
75 -41 13 9 80 136 75 144 -3 4 -32 26 -65 50 l-60 42 -24 -38z"/>
<path d="M3416 2653 c-3 -21 -6 -57 -6 -80 0 -36 3 -43 19 -43 26 0 29 6 32
74 2 51 0 61 -18 73 -19 13 -21 11 -27 -24z"/>
<path d="M1566 2635 c-9 -54 -1 -81 24 -95 17 -9 20 -5 30 32 6 24 13 48 15
54 3 10 -45 54 -58 54 -3 0 -8 -20 -11 -45z"/>
<path d="M3200 2643 c-6 -15 -18 -47 -27 -70 -8 -23 -13 -48 -10 -55 2 -7 25
-27 49 -45 l45 -32 22 74 c11 40 21 77 21 82 0 5 -20 24 -45 42 l-45 32 -10
-28z"/>
<path d="M2561 2576 l-51 -74 75 -51 74 -52 50 75 51 75 -63 44 c-34 24 -67
47 -73 50 -7 4 -33 -23 -63 -67z"/>
<path d="M1905 2571 c-19 -39 -35 -75 -35 -80 0 -8 65 -59 107 -84 13 -8 99
143 85 152 -60 42 -99 69 -109 75 -8 4 -24 -17 -48 -63z"/>
<path d="M3482 2610 c0 -19 2 -27 5 -17 2 9 2 25 0 35 -3 9 -5 1 -5 -18z"/>
<path d="M1646 2612 c-3 -5 -8 -28 -12 -50 -6 -41 -6 -42 22 -43 l29 -1 -33
-9 c-47 -14 -51 -35 -11 -69 19 -16 37 -29 40 -30 3 0 16 35 28 77 l23 77 -34
28 c-36 30 -44 33 -52 20z"/>
<path d="M2291 2526 l-51 -75 63 -44 c34 -24 67 -47 74 -50 9 -6 72 70 106
130 6 9 -59 62 -130 106 -8 5 -30 -18 -62 -67z"/>
<path d="M2972 2523 c-23 -42 -41 -77 -40 -78 2 -1 26 -17 53 -37 28 -19 56
-38 62 -42 9 -5 25 18 50 69 l38 76 -35 29 c-19 16 -46 35 -60 44 -26 15 -26
15 -68 -61z"/>
<path d="M3292 2514 l-23 -77 33 -28 c18 -15 38 -28 44 -29 6 0 16 26 23 57
14 73 15 71 -11 76 -20 4 -19 4 5 6 15 0 27 5 27 10 0 8 -63 61 -72 61 -2 0
-14 -34 -26 -76z"/>
<path d="M1720 2479 c-13 -46 -19 -83 -14 -88 5 -4 26 -19 47 -35 l37 -27 11
28 c6 15 19 49 29 75 l18 48 -41 32 c-23 17 -47 35 -53 40 -7 5 -18 -20 -34
-73z"/>
<path d="M2067 2518 c-43 -71 -67 -119 -63 -126 3 -5 32 -27 65 -51 l61 -42
33 53 c64 101 65 91 -7 142 -36 25 -67 46 -70 46 -3 0 -12 -10 -19 -22z"/>
<path d="M2721 2466 l-51 -75 72 -50 73 -50 48 76 c27 41 45 79 40 83 -10 8
-104 73 -120 83 -8 5 -30 -19 -62 -67z"/>
<path d="M3390 2468 c-6 -24 -15 -57 -20 -74 -7 -28 -4 -34 22 -54 16 -12 31
-20 32 -18 2 1 10 38 18 81 15 76 15 78 -6 92 -30 22 -34 19 -46 -27z"/>
<path d="M3108 2426 l-37 -75 48 -35 c27 -20 53 -36 58 -36 8 0 28 39 71 141
3 7 -85 79 -97 79 -4 0 -23 -33 -43 -74z"/>
<path d="M2451 2416 l-51 -75 63 -44 c34 -24 67 -47 74 -50 9 -6 72 71 106
130 6 9 -59 62 -130 106 -8 5 -30 -18 -62 -67z"/>
<path d="M1500 2423 c0 -28 5 -55 10 -58 13 -8 13 75 0 95 -7 11 -10 0 -10
-37z"/>
<path d="M1561 2456 c-7 -8 -15 -39 -18 -69 -5 -48 -3 -56 15 -66 17 -9 20 -7
26 21 9 45 7 128 -3 128 -5 0 -14 -6 -20 -14z"/>
<path d="M1849 2443 c-6 -15 -19 -49 -29 -75 l-18 -48 49 -35 c27 -19 53 -35
57 -35 8 0 30 40 58 107 14 31 13 32 -34 65 -73 52 -71 52 -83 21z"/>
<path d="M3467 2453 c-2 -5 -10 -38 -17 -76 -10 -54 -10 -70 0 -83 7 -8 17
-11 22 -6 13 13 22 158 10 166 -6 3 -13 3 -15 -1z"/>
<path d="M1606 2422 c-3 -15 -6 -50 -8 -79 -2 -46 1 -54 29 -77 l31 -26 5 33
c21 118 21 120 -17 149 l-34 28 -6 -28z"/>
<path d="M2187 2365 l-45 -75 64 -45 c36 -25 69 -45 73 -45 4 0 29 31 54 69
l46 69 -73 51 -73 50 -46 -74z"/>
<path d="M2875 2360 c-25 -39 -45 -72 -45 -75 0 -5 117 -85 125 -85 5 0 95
136 95 144 0 5 -117 86 -124 86 -3 0 -26 -32 -51 -70z"/>
<path d="M3500 2356 c-7 -40 -10 -80 -8 -87 3 -8 11 23 18 69 7 45 10 85 8 88
-3 2 -11 -29 -18 -70z"/>
<path d="M3260 2417 c0 -3 -15 -38 -34 -79 l-34 -75 43 -31 c48 -33 55 -32 55
9 0 31 -23 59 -48 60 -10 0 -6 5 10 10 15 6 31 22 37 37 5 15 10 20 10 11 1
-9 7 -22 15 -28 12 -10 17 -8 25 7 9 17 5 24 -22 44 -39 30 -57 41 -57 35z"/>
<path d="M1681 2308 l-11 -73 33 -27 c17 -15 37 -28 43 -28 6 0 17 31 25 68
l15 68 -43 32 c-23 18 -44 32 -46 32 -3 0 -10 -33 -16 -72z"/>
<path d="M1960 2314 c-16 -37 -30 -72 -30 -78 1 -11 109 -91 115 -84 16 16 75
130 71 136 -3 5 -32 27 -65 51 l-60 42 -31 -67z"/>
<path d="M2618 2317 c-25 -34 -48 -67 -51 -74 -7 -11 111 -104 130 -103 9 1
103 125 103 137 0 4 -31 29 -69 55 l-68 47 -45 -62z"/>
<path d="M1504 2335 c3 -11 8 -42 12 -70 9 -68 27 -96 20 -31 -3 27 -6 56 -6
65 0 10 -7 26 -16 37 -15 19 -15 19 -10 -1z"/>
<path d="M3351 2331 c-9 -16 -9 -21 1 -21 7 0 6 -5 -4 -12 -9 -7 -25 -34 -36
-60 l-21 -48 30 -21 c17 -12 28 -24 25 -27 -3 -3 -14 2 -24 11 -10 10 -23 17
-29 17 -6 0 -30 -32 -53 -72 -41 -68 -42 -72 -24 -85 49 -37 50 -36 93 39 38
65 117 247 109 251 -1 1 -15 13 -30 25 l-26 24 -11 -21z"/>
<path d="M3016 2264 c-25 -41 -46 -76 -46 -78 0 -5 112 -78 115 -74 10 11 85
140 85 146 0 4 -24 24 -54 44 l-53 37 -47 -75z"/>
<path d="M2341 2257 l-48 -72 69 -49 c39 -27 73 -44 77 -39 33 49 95 123 98
119 3 -3 -16 -32 -41 -65 -25 -33 -46 -63 -46 -68 0 -4 29 -27 65 -50 l64 -42
55 66 c31 37 53 70 48 74 -4 3 -71 49 -149 102 l-143 96 -49 -72z"/>
<path d="M1540 2310 c0 -46 22 -136 36 -149 15 -15 16 -11 10 54 -4 50 -11 75
-26 89 -15 16 -20 17 -20 6z"/>
<path d="M1795 2288 c-2 -7 -11 -38 -18 -69 l-15 -57 46 -32 c24 -17 48 -28
52 -23 3 4 16 33 28 64 l20 57 -41 29 c-61 43 -67 46 -72 31z"/>
<path d="M3423 2273 c-3 -10 -17 -45 -30 -78 -21 -53 -22 -61 -8 -74 20 -20
30 -9 54 59 10 30 22 63 26 72 4 11 0 20 -14 28 -18 9 -22 8 -28 -7z"/>
<path d="M2097 2213 c-20 -36 -37 -68 -37 -72 1 -9 106 -81 119 -81 9 0 91
111 91 123 0 2 -31 24 -68 49 l-68 45 -37 -64z"/>
<path d="M1600 2227 c0 -70 10 -105 36 -122 l24 -15 0 68 c0 64 -2 70 -30 90
l-30 23 0 -44z"/>
<path d="M2762 2198 l-52 -71 66 -44 c36 -25 67 -43 68 -41 2 2 26 34 54 72
l52 69 -65 44 c-35 23 -66 43 -68 43 -2 0 -27 -32 -55 -72z"/>
<path d="M3142 2179 c-23 -39 -42 -74 -42 -78 0 -5 19 -21 42 -36 l41 -27 17
22 c10 13 30 47 46 76 32 59 33 56 -36 98 -26 15 -26 14 -68 -55z"/>
<path d="M3469 2224 c-56 -147 -52 -134 -40 -134 11 0 65 149 57 157 -3 3 -10
-7 -17 -23z"/>
<path d="M1909 2193 c-26 -66 -39 -106 -36 -110 2 -2 26 -19 53 -38 l49 -35
31 63 c18 34 31 62 31 63 -1 0 -28 20 -60 43 l-57 42 -11 -28z"/>
<path d="M1670 2146 c0 -61 2 -66 33 -90 l32 -26 8 63 c8 62 8 62 -25 89 -18
15 -36 28 -40 28 -5 0 -8 -29 -8 -64z"/>
<path d="M2241 2113 c-23 -32 -41 -62 -41 -68 0 -5 28 -28 61 -49 53 -34 63
-38 73 -25 6 8 29 36 50 62 21 26 37 49 35 51 -15 12 -129 86 -133 86 -2 0
-23 -26 -45 -57z"/>
<path d="M2902 2100 l-52 -69 52 -36 c29 -19 56 -35 60 -35 7 0 108 124 108
134 0 6 -102 76 -110 75 -3 0 -29 -31 -58 -69z"/>
<path d="M1755 2084 c-4 -36 -5 -67 -3 -68 1 -1 19 -15 39 -29 l36 -27 13 60
c7 33 11 62 9 63 -2 2 -23 17 -45 35 l-42 32 -7 -66z"/>
<path d="M1572 2130 c3 -8 13 -39 22 -67 10 -29 22 -56 28 -60 8 -4 9 0 5 12
-4 10 -12 37 -18 61 -6 24 -18 49 -27 56 -13 11 -15 10 -10 -2z"/>
<path d="M2017 2065 c-15 -31 -27 -57 -27 -59 0 -6 96 -76 104 -76 8 0 80 109
75 113 -62 46 -109 77 -116 77 -5 0 -21 -25 -36 -55z"/>
<path d="M3320 2044 c-23 -41 -40 -76 -39 -77 2 -2 11 -8 20 -15 15 -11 22 -4
58 59 23 39 41 75 41 80 0 4 -9 13 -19 19 -17 9 -24 2 -61 -66z"/>
<path d="M2659 2068 c-77 -96 -75 -81 -14 -122 30 -20 58 -37 63 -38 4 -2 34
25 66 59 l57 62 -60 40 c-33 23 -64 41 -69 41 -5 0 -24 -19 -43 -42z"/>
<path d="M1620 2093 c0 -25 32 -112 45 -123 18 -15 18 -15 4 49 -5 27 -19 57
-30 67 -10 9 -19 13 -19 7z"/>
<path d="M3032 2019 c-26 -33 -48 -64 -50 -68 -3 -8 72 -61 85 -60 9 0 91 102
99 123 5 13 -58 66 -78 66 -5 0 -29 -27 -56 -61z"/>
<path d="M3371 2008 c-38 -70 -47 -109 -12 -59 40 60 70 120 62 126 -5 3 -27
-27 -50 -67z"/>
<path d="M1851 2012 l-11 -57 32 -27 c18 -15 38 -28 44 -28 6 0 20 22 32 49
l20 49 -41 29 c-23 16 -47 33 -53 36 -7 4 -15 -14 -23 -51z"/>
<path d="M2386 2014 c-25 -31 -46 -60 -46 -64 0 -4 25 -24 56 -45 l56 -37 54
53 c30 29 54 56 54 60 0 6 -18 19 -101 73 l-26 16 -47 -56z"/>
<path d="M1680 2041 c0 -39 24 -108 40 -119 19 -11 20 -9 20 36 0 34 -5 53
-17 64 -28 23 -43 30 -43 19z"/>
<path d="M2147 1975 c-21 -30 -37 -56 -37 -58 0 -2 24 -20 54 -40 l53 -36 30
32 c16 18 36 41 46 53 19 23 25 17 -84 87 l-26 17 -36 -55z"/>
<path d="M2784 1959 l-59 -60 27 -22 c15 -13 40 -30 56 -39 l29 -17 59 60 59
60 -27 22 c-15 13 -40 30 -56 39 l-29 17 -59 -60z"/>
<path d="M3131 1944 c-29 -36 -51 -67 -49 -68 25 -19 55 -36 63 -36 5 0 32 27
59 60 27 34 51 59 53 56 3 -3 -18 -33 -46 -67 -49 -61 -50 -63 -30 -77 11 -8
24 -10 28 -6 4 5 29 35 55 66 l47 57 -55 40 c-30 23 -59 41 -64 41 -5 0 -32
-30 -61 -66z"/>
<path d="M1754 1950 c4 -37 13 -61 27 -72 33 -28 40 -22 37 28 -3 39 -8 51
-37 73 l-34 26 7 -55z"/>
<path d="M1960 1945 c-11 -26 -20 -50 -20 -55 0 -5 19 -22 42 -39 l41 -31 32
47 32 48 -21 15 c-12 9 -36 26 -54 39 l-32 22 -20 -46z"/>
<path d="M2520 1915 c-29 -30 -52 -56 -49 -58 22 -18 100 -67 106 -67 10 0
116 88 120 99 3 5 -108 81 -118 81 -3 0 -29 -25 -59 -55z"/>
<path d="M1692 1896 c12 -25 23 -44 25 -42 5 5 -26 74 -37 81 -6 4 0 -14 12
-39z"/>
<path d="M2294 1907 c-72 -78 -71 -71 -16 -106 27 -17 53 -31 58 -31 5 0 31
20 58 44 l50 43 -61 41 -60 41 -29 -32z"/>
<path d="M1830 1886 c0 -36 5 -48 27 -66 29 -23 35 -20 51 27 10 31 9 34 -26
58 -20 14 -40 25 -44 25 -5 0 -8 -20 -8 -44z"/>
<path d="M2902 1877 c-29 -29 -52 -56 -52 -60 0 -4 18 -19 40 -33 l41 -27 27
24 c15 13 44 39 64 58 l38 35 -43 28 c-23 15 -47 28 -52 28 -6 0 -34 -24 -63
-53z"/>
<path d="M3270 1860 c-29 -33 -49 -64 -45 -68 7 -7 58 47 92 96 33 48 3 30
-47 -28z"/>
<path d="M1729 1869 c20 -43 50 -80 37 -46 -3 11 -9 29 -12 41 -3 12 -14 27
-24 34 -18 11 -18 10 -1 -29z"/>
<path d="M2066 1860 c-14 -22 -26 -42 -26 -45 0 -3 19 -19 42 -35 l42 -30 38
37 c21 20 38 40 38 43 0 9 -86 70 -98 70 -5 0 -21 -18 -36 -40z"/>
<path d="M2648 1827 l-57 -52 50 -33 49 -32 66 51 65 52 -50 33 c-28 19 -54
34 -58 34 -4 -1 -34 -24 -65 -53z"/>
<path d="M1774 1845 c4 -16 15 -41 24 -55 l17 -25 3 29 c3 21 -4 36 -23 55
l-27 26 6 -30z"/>
<path d="M1920 1843 c-6 -15 -13 -33 -15 -40 -2 -7 10 -24 28 -37 l32 -25 22
27 c12 15 22 32 22 37 1 6 -17 23 -39 38 l-40 28 -10 -28z"/>
<path d="M3011 1814 c-34 -31 -61 -59 -61 -63 0 -4 14 -15 30 -24 l30 -18 60
52 c33 29 60 56 60 60 0 4 -13 17 -29 28 l-30 21 -60 -56z"/>
<path d="M2401 1801 l-54 -47 27 -17 c80 -52 67 -51 131 -5 l58 41 -26 21
c-15 12 -39 29 -55 38 -28 17 -28 16 -81 -31z"/>
<path d="M1833 1791 c12 -61 51 -86 45 -30 -2 20 -12 38 -27 48 l-24 16 6 -34z"/>
<path d="M2177 1782 l-38 -39 42 -27 c45 -31 54 -29 112 18 l29 23 -50 31
c-27 18 -51 32 -53 32 -3 0 -22 -17 -42 -38z"/>
<path d="M3083 1755 c-48 -45 -55 -56 -43 -65 23 -15 25 -14 88 43 44 38 57
55 50 65 -18 21 -36 13 -95 -43z"/>
<path d="M2014 1788 c-4 -7 -14 -23 -21 -34 -13 -20 -11 -24 22 -44 l35 -22
29 24 c17 13 30 26 30 29 1 6 -74 59 -83 59 -3 0 -8 -6 -12 -12z"/>
<path d="M2767 1754 c-63 -49 -64 -60 -8 -84 27 -11 34 -8 95 33 l66 44 -40
27 c-22 14 -43 26 -47 26 -5 0 -34 -21 -66 -46z"/>
<path d="M3149 1734 c-75 -63 -75 -64 -58 -64 16 1 139 109 123 110 -5 0 -35
-21 -65 -46z"/>
<path d="M1896 1763 c-13 -14 -5 -49 15 -61 12 -7 22 -12 23 -10 1 2 7 10 14
20 11 14 8 19 -16 37 -16 11 -32 18 -36 14z"/>
<path d="M2512 1721 l-53 -38 41 -27 40 -26 48 24 c26 13 56 31 66 39 19 14
18 16 -22 41 -23 14 -47 26 -54 26 -7 0 -37 -18 -66 -39z"/>
<path d="M2282 1709 c-23 -17 -40 -34 -38 -37 2 -4 20 -15 39 -25 l34 -19 58
30 59 29 -46 27 c-24 14 -49 26 -54 26 -6 0 -29 -14 -52 -31z"/>
<path d="M2862 1693 l-63 -46 28 -18 c23 -15 31 -16 48 -6 11 7 41 26 67 43
27 16 48 31 48 34 0 6 -55 40 -62 40 -1 -1 -31 -22 -66 -47z"/>
<path d="M2088 1705 l-28 -24 31 -22 c30 -21 31 -21 70 -4 21 10 39 21 39 26
0 9 -63 49 -76 49 -5 0 -21 -11 -36 -25z"/>
<path d="M1860 1711 c0 -5 5 -13 10 -16 6 -3 10 -2 10 4 0 5 -4 13 -10 16 -5
3 -10 2 -10 -4z"/>
<path d="M1962 1708 c-30 -30 5 -64 45 -45 30 13 29 19 -5 39 -22 13 -32 14
-40 6z"/>
<path d="M1890 1687 c0 -8 7 -17 15 -21 8 -3 15 -2 15 3 0 5 -7 14 -15 21 -12
10 -15 10 -15 -3z"/>
<path d="M2617 1656 c-60 -34 -61 -38 -10 -65 19 -9 33 -6 88 21 36 18 65 35
65 38 0 9 -56 40 -72 40 -7 0 -39 -16 -71 -34z"/>
<path d="M2938 1646 c-65 -42 -74 -56 -37 -56 20 0 139 68 139 80 0 6 -25 21
-33 20 -1 0 -32 -20 -69 -44z"/>
<path d="M2392 1652 c-28 -15 -52 -29 -52 -33 0 -4 12 -14 26 -24 25 -16 30
-16 86 1 32 9 61 21 63 25 3 3 -12 18 -33 31 l-37 25 -53 -25z"/>
<path d="M1930 1662 c0 -12 19 -26 26 -19 2 2 -2 10 -11 17 -9 8 -15 8 -15 2z"/>
<path d="M2022 1656 c-21 -11 -22 -14 -8 -25 11 -9 28 -11 53 -6 l37 7 -24 19
c-29 22 -29 22 -58 5z"/>
<path d="M2177 1649 c-36 -19 -38 -21 -20 -34 10 -8 13 -15 6 -15 -6 0 -15 5
-18 10 -8 13 -55 13 -75 0 -12 -8 -12 -10 2 -15 26 -10 149 1 187 17 l35 14
-36 22 c-42 26 -34 26 -81 1z"/>
<path d="M2998 1622 c-74 -48 -87 -63 -23 -27 91 52 110 65 95 64 -8 0 -41
-17 -72 -37z"/>
<path d="M1975 1630 c-3 -5 1 -10 10 -10 9 0 13 5 10 10 -3 6 -8 10 -10 10 -2
0 -7 -4 -10 -10z"/>
<path d="M2717 1608 c-37 -17 -67 -34 -67 -38 0 -4 11 -12 23 -17 19 -9 37 -6
92 18 37 15 69 30 71 32 2 2 -9 10 -24 20 -27 15 -31 15 -95 -15z"/>
<path d="M2258 1597 c-21 -6 -38 -14 -38 -17 0 -17 48 -26 99 -17 l55 9 -25
19 c-27 21 -37 21 -91 6z"/>
<path d="M2478 1592 c-55 -20 -63 -33 -26 -46 19 -7 46 -4 93 9 l66 18 -31 18
c-36 22 -41 22 -102 1z"/>
<path d="M2781 1565 c-98 -44 -66 -57 39 -16 63 24 71 30 55 38 -15 8 -37 3
-94 -22z"/>
<path d="M2120 1570 c0 -5 15 -10 34 -10 19 0 43 -3 53 -7 16 -6 16 -5 4 10
-15 19 -91 24 -91 7z"/>
<path d="M2340 1553 c-83 -14 -48 -37 40 -27 53 6 58 8 43 20 -18 13 -36 15
-83 7z"/>
<path d="M2540 1541 c-48 -15 -52 -18 -36 -28 14 -7 37 -6 85 5 75 17 81 20
61 32 -20 13 -45 11 -110 -9z"/>
<path d="M2208 1533 c12 -2 30 -2 40 0 9 3 -1 5 -23 4 -22 0 -30 -2 -17 -4z"/>
<path d="M2617 1511 c-38 -9 -66 -19 -62 -22 6 -6 144 16 152 25 12 12 -31 10
-90 -3z"/>
<path d="M2375 1510 c-33 -6 -25 -7 40 -8 55 -1 75 1 65 8 -17 11 -45 11 -105
0z"/>
<path d="M2453 1483 c15 -2 39 -2 55 0 15 2 2 4 -28 4 -30 0 -43 -2 -27 -4z"/>
<path d="M1501 1604 c-60 -55 -76 -84 -47 -84 19 0 138 110 133 123 -8 24 -28
15 -86 -39z"/>
<path d="M3155 1440 c-8 -13 25 -62 39 -57 16 5 19 36 6 52 -14 17 -36 20 -45
5z"/>
<path d="M1912 1365 c-17 -36 -15 -45 8 -45 26 0 46 36 29 56 -16 20 -24 18
-37 -11z"/>
<path d="M2954 1337 c-8 -21 51 -162 70 -165 24 -5 20 20 -15 104 -30 72 -44
88 -55 61z"/>
</g>
</svg>
